# xmcd
#
# Track frame offsets:
#	150
#	24150
#	41639
#	60254
#	77463
#	94828
#	113912
#	130721
#	149969
#	167915
#	183215
#	200106
#	216990
#	234614
#	252606
#	270318
#
# Disc length: 3827
#
# Revision: 2
# Processed by: cddbd v1.5.1PL0 Copyright (c) Steve Scherf et al.
# Submitted via: EasyCDDAExtractor 6.2.0.3
# Normalized: r1:DSETVAR1
#
DISCID=e50ef110
DTITLE=Various Artist - BMG Sampler 0407
DYEAR=2004
DGENRE=R&B
TTITLE0=R.Kelly - U Saved Me
TTITLE1=Alicia Keys - If I Ain't Got You
TTITLE2=Raheem De Vaughn - Guess Who Loves You More
TTITLE3=Angie Stone ft. Snoop - I Wanna Thank You
TTITLE4=Usher - Confessions
TTITLE5=Cassidy ft. R.Kelly and Trina - Hotel
TTITLE6=Mobb Deep - Got It Twisted
TTITLE7=Petter ft. Ken - Kom Kom Kom
TTITLE8=Petter ft. Martin Bentancourt - Tredje Gången Gillt
TTITLE9=Britney Spears - Outrageous
TTITLE10=Ciara ft Petey Pablo - Goodies
TTITLE11=Mystikal - Oochie Pop
TTITLE12=J-Kwon - Tipsy
TTITLE13=Petey Pablo - Freek A Leek
TTITLE14=Afasi and Filthy - Bomfalleralla
TTITLE15=Natasha Bedingfield ft. Juxci - Single (K-Gee Remix)
EXTD=
EXTT0=
EXTT1=
EXTT2=
EXTT3=
EXTT4=
EXTT5=
EXTT6=
EXTT7=
EXTT8=
EXTT9=
EXTT10=
EXTT11=
EXTT12=
EXTT13=
EXTT14=
EXTT15=
PLAYORDER=
